<svg width="116" height="48" viewBox="0 0 116 48" fill="none" xmlns="http://www.w3.org/2000/svg">
<path d="M24.7515 15.4727C23.908 14.9685 22.8115 15.3887 22.3897 16.229L16.0636 29.758C15.8949 30.0101 15.8106 30.2622 15.4732 30.2622C15.1358 30.2622 14.9671 30.0942 14.8827 29.758L8.47226 16.229C8.05051 15.3887 6.95398 14.9685 6.1105 15.4727C5.26702 15.9769 4.92962 17.0693 5.35137 17.9096L11.5088 30.4303L12.1836 31.8588C12.774 33.1193 14.0393 33.8756 15.3888 33.8756C16.7384 33.8756 17.9193 33.1193 18.5941 31.8588L19.2689 30.4303L25.4263 17.9096C25.9324 17.0693 25.595 15.8929 24.7515 15.4727Z" fill="#00B336"/>
<path d="M108.762 15.2206C107.581 15.2206 106.569 15.9769 106.063 16.9853C104.461 20.2625 99.7371 29.9261 99.7371 30.0102C99.7371 30.0942 99.5684 30.2622 99.3997 30.2622C99.231 30.2622 99.0623 30.0102 99.0623 30.0102C97.4597 26.817 94.4231 20.4306 92.8205 17.1534C92.2301 15.8929 91.1336 15.3047 90.037 15.3047C88.2657 15.3047 86.9161 16.7332 86.9161 18.75V32.1109C86.9161 32.9513 87.4222 33.7075 88.097 33.8756C89.2779 34.2958 90.2901 33.2033 90.2901 32.0269L89.9527 19.0021C89.9527 18.834 90.1214 18.834 90.2057 18.918L96.6162 31.9429C97.2066 33.2033 98.2188 33.9596 99.3997 33.9596C100.581 33.9596 101.593 33.2033 102.183 31.9429L108.594 18.918C108.678 18.834 108.847 18.834 108.847 19.0021L108.594 32.1109C108.594 33.1193 109.353 33.9596 110.281 33.9596C111.208 33.9596 111.883 33.0353 111.883 32.0269C111.883 32.0269 111.883 22.0272 111.883 18.75C111.968 16.7332 110.534 15.3047 108.762 15.2206Z" fill="#00B336"/>
<path d="M84.6389 31.2706L77.5537 17.2374C76.9632 15.9769 75.698 15.2206 74.4328 15.2206C73.5893 15.2206 72.8302 15.5568 72.1554 16.061C71.818 16.3971 71.4806 16.8172 71.2275 17.2374L64.1423 31.1026C64.1423 31.1026 64.1423 31.1026 64.1423 31.1866C63.8049 31.8588 63.8892 32.6151 64.311 33.1193C64.311 33.1193 64.311 33.1193 64.311 33.2033C64.311 33.2033 64.311 33.2033 64.311 33.2874C64.4797 33.4554 64.564 33.6235 64.8171 33.7075C65.4075 34.0437 66.0823 34.0437 66.6727 33.6235L66.7571 33.5395L66.8414 33.4554C66.9258 33.2874 67.0945 33.2033 67.1788 33.0353L67.4319 32.4471L68.9501 29.3379C68.9501 29.2539 69.0345 29.1698 69.1188 29.1698H75.6137C76.4571 29.1698 77.2163 28.4136 77.2163 27.4892C77.2163 26.5649 76.5415 25.8086 75.6137 25.8086H71.818H70.8901C70.8058 25.8086 70.7214 25.7246 70.7214 25.5565L71.0588 24.8002L73.758 19.4222C73.8423 19.3382 73.9267 18.918 74.1797 18.834C74.3484 18.75 74.4328 18.834 74.6015 18.834C74.8545 18.918 75.0232 19.2541 75.1076 19.5062L81.6024 32.8672C81.9398 33.4554 82.5302 33.8756 83.1207 33.8756C83.2894 33.8756 83.5424 33.8756 83.7111 33.7916C83.7954 33.7916 83.7955 33.7075 83.8798 33.7075C83.8798 33.7075 83.8798 33.7075 83.9641 33.7075C83.9641 33.7075 83.9641 33.7075 84.0485 33.7075C84.0485 33.7075 84.0485 33.7075 84.1328 33.7075C84.1328 33.7075 84.2172 33.7075 84.2172 33.6235L84.3015 33.5395C84.892 32.8672 85.0607 32.0269 84.6389 31.2706Z" fill="#00B336"/>
<path d="M29.4749 26.6489H41.4524C41.7054 26.6489 43.5611 26.4809 43.5611 24.3801C43.5611 19.2542 39.5967 15.0526 34.7045 15.0526C29.8123 15.0526 25.8479 19.2542 25.8479 24.3801C25.8479 24.4641 25.8479 24.8002 25.8479 24.8843C25.8479 30.7665 29.6436 33.8756 34.6201 34.2118C34.8732 34.2118 35.1262 34.2118 35.2949 34.2118C37.2349 34.2118 38.8376 33.7076 40.6089 32.6152C40.7776 32.5311 41.4524 32.0269 42.2115 31.1026C42.8019 30.3463 42.8019 29.2539 42.2115 28.6657C41.2837 27.8254 40.3558 28.2455 39.5967 29.0018C38.3315 30.0942 37.3193 30.9345 34.7045 30.9345C32.2584 30.9345 29.981 29.59 29.3905 26.817C29.3062 26.733 29.3905 26.6489 29.4749 26.6489ZM29.3905 23.2037C29.7279 20.5146 31.5836 18.1618 34.7045 18.1618C37.8254 18.1618 39.7654 20.5146 40.1028 23.2037C40.1028 23.2877 40.0184 23.3717 39.9341 23.3717H29.4749C29.3905 23.3717 29.3062 23.2877 29.3905 23.2037Z" fill="#00B336"/>
<path d="M49.3813 26.6489H61.3587C61.6118 26.6489 63.4674 26.4809 63.4674 24.3801C63.4674 19.2542 59.5031 15.0526 54.6109 15.0526C49.7186 15.0526 45.7543 19.2542 45.7543 24.3801C45.7543 24.4641 45.7543 24.8002 45.7543 24.8843C45.7543 30.7665 49.55 33.8756 54.5265 34.2118C54.7796 34.2118 55.0326 34.2118 55.2013 34.2118C57.1413 34.2118 58.7439 33.7076 60.5152 32.6152C60.6839 32.5311 61.3587 32.0269 62.1179 31.1026C62.7083 30.3463 62.7083 29.2539 62.1179 28.6657C61.19 27.8254 60.2622 28.2455 59.5031 29.0018C58.2378 30.0942 57.2257 30.9345 54.6109 30.9345C52.1648 30.9345 49.8873 29.59 49.2969 26.817C49.2126 26.733 49.2969 26.6489 49.3813 26.6489ZM49.2126 23.2037C49.55 20.5146 51.4056 18.1618 54.5265 18.1618C57.6474 18.1618 59.5874 20.5146 59.9248 23.2037C59.9248 23.2877 59.8405 23.3717 59.7561 23.3717H49.3813C49.2969 23.3717 49.2126 23.2877 49.2126 23.2037Z" fill="#00B336"/>
</svg>
